<mxfile host="app.diagrams.net" modified="2024-04-05T19:11:33.111Z" agent="Mozilla/5.0 (X11; Linux x86_64; rv:109.0) Gecko/20100101 Firefox/115.0" etag="lFaBJQC5dhvuolY3qCDZ" version="24.2.0" type="device">
  <diagram name="Página-1" id="z9HnrFSc7xfMUlxDtUYV">
    <mxGraphModel dx="1434" dy="728" grid="1" gridSize="10" guides="1" tooltips="1" connect="1" arrows="1" fold="1" page="1" pageScale="1" pageWidth="1169" pageHeight="827" math="0" shadow="0">
      <root>
        <mxCell id="0" />
        <mxCell id="1" parent="0" />
        <mxCell id="ALYUk1nCFPAaFpfhy-I6-16" value="&lt;b&gt;Host Docker&lt;br&gt;&lt;/b&gt;" style="rounded=0;whiteSpace=wrap;html=1;fillColor=#eeeeee;strokeColor=#36393d;" vertex="1" parent="1">
          <mxGeometry x="140" y="520" width="710" height="110" as="geometry" />
        </mxCell>
        <mxCell id="ALYUk1nCFPAaFpfhy-I6-4" value="" style="edgeStyle=orthogonalEdgeStyle;rounded=0;orthogonalLoop=1;jettySize=auto;html=1;" edge="1" parent="1" source="ALYUk1nCFPAaFpfhy-I6-1" target="ALYUk1nCFPAaFpfhy-I6-3">
          <mxGeometry relative="1" as="geometry" />
        </mxCell>
        <mxCell id="ALYUk1nCFPAaFpfhy-I6-1" value="" style="verticalLabelPosition=bottom;html=1;verticalAlign=top;align=center;strokeColor=#23445d;fillColor=#bac8d3;shape=mxgraph.azure.user;" vertex="1" parent="1">
          <mxGeometry x="190" y="90" width="47.5" height="50" as="geometry" />
        </mxCell>
        <mxCell id="ALYUk1nCFPAaFpfhy-I6-2" value="&lt;font style=&quot;font-size: 14px;&quot;&gt;1. El usuario lanza el cliente Docker&lt;/font&gt;" style="text;strokeColor=none;align=center;fillColor=none;html=1;verticalAlign=middle;whiteSpace=wrap;rounded=0;fontStyle=1" vertex="1" parent="1">
          <mxGeometry x="230" y="100" width="220" height="30" as="geometry" />
        </mxCell>
        <mxCell id="ALYUk1nCFPAaFpfhy-I6-6" value="" style="edgeStyle=orthogonalEdgeStyle;rounded=0;orthogonalLoop=1;jettySize=auto;html=1;" edge="1" parent="1" source="ALYUk1nCFPAaFpfhy-I6-3" target="ALYUk1nCFPAaFpfhy-I6-5">
          <mxGeometry relative="1" as="geometry" />
        </mxCell>
        <mxCell id="ALYUk1nCFPAaFpfhy-I6-7" value="RESTful API" style="edgeLabel;html=1;align=center;verticalAlign=middle;resizable=0;points=[];horizontal=1;fontStyle=0;fontSize=12;" vertex="1" connectable="0" parent="ALYUk1nCFPAaFpfhy-I6-6">
          <mxGeometry x="-0.3176" y="-4" relative="1" as="geometry">
            <mxPoint x="10" y="-14" as="offset" />
          </mxGeometry>
        </mxCell>
        <mxCell id="ALYUk1nCFPAaFpfhy-I6-21" value="" style="edgeStyle=orthogonalEdgeStyle;rounded=0;orthogonalLoop=1;jettySize=auto;html=1;entryX=0;entryY=0.5;entryDx=0;entryDy=0;dashed=1;exitX=0;exitY=0.5;exitDx=0;exitDy=0;" edge="1" parent="1" source="ALYUk1nCFPAaFpfhy-I6-3" target="ALYUk1nCFPAaFpfhy-I6-14">
          <mxGeometry relative="1" as="geometry">
            <mxPoint x="213.75" y="330" as="targetPoint" />
            <Array as="points">
              <mxPoint x="120" y="220" />
              <mxPoint x="120" y="470" />
            </Array>
          </mxGeometry>
        </mxCell>
        <mxCell id="ALYUk1nCFPAaFpfhy-I6-3" value="&lt;font style=&quot;font-size: 14px;&quot;&gt;&lt;b&gt;Cliente Docker&lt;/b&gt;&lt;/font&gt;" style="rounded=0;whiteSpace=wrap;html=1;fillColor=#b0e3e6;strokeColor=#0e8088;" vertex="1" parent="1">
          <mxGeometry x="153.75" y="190" width="120" height="60" as="geometry" />
        </mxCell>
        <mxCell id="ALYUk1nCFPAaFpfhy-I6-10" value="" style="edgeStyle=orthogonalEdgeStyle;rounded=0;orthogonalLoop=1;jettySize=auto;html=1;" edge="1" parent="1" source="ALYUk1nCFPAaFpfhy-I6-5" target="ALYUk1nCFPAaFpfhy-I6-9">
          <mxGeometry relative="1" as="geometry" />
        </mxCell>
        <mxCell id="ALYUk1nCFPAaFpfhy-I6-5" value="&lt;div&gt;&lt;b&gt;Demonio Docker&lt;/b&gt;&lt;/div&gt;&lt;div&gt;&lt;b&gt;(Engine)&lt;br&gt;&lt;/b&gt;&lt;/div&gt;" style="rounded=0;whiteSpace=wrap;html=1;fillColor=#b0e3e6;strokeColor=#0e8088;" vertex="1" parent="1">
          <mxGeometry x="380" y="190" width="120" height="60" as="geometry" />
        </mxCell>
        <mxCell id="ALYUk1nCFPAaFpfhy-I6-13" value="" style="edgeStyle=orthogonalEdgeStyle;rounded=0;orthogonalLoop=1;jettySize=auto;html=1;" edge="1" parent="1" source="ALYUk1nCFPAaFpfhy-I6-9" target="ALYUk1nCFPAaFpfhy-I6-12">
          <mxGeometry relative="1" as="geometry" />
        </mxCell>
        <mxCell id="ALYUk1nCFPAaFpfhy-I6-9" value="&lt;b&gt;&lt;font style=&quot;font-size: 13px;&quot;&gt;Demonio containerd&lt;/font&gt;&lt;/b&gt;" style="rounded=0;whiteSpace=wrap;html=1;fillColor=#b0e3e6;strokeColor=#0e8088;" vertex="1" parent="1">
          <mxGeometry x="585" y="190" width="120" height="60" as="geometry" />
        </mxCell>
        <mxCell id="ALYUk1nCFPAaFpfhy-I6-11" value="API" style="edgeLabel;html=1;align=center;verticalAlign=middle;resizable=0;points=[];horizontal=1;fontStyle=0;fontSize=12;" vertex="1" connectable="0" parent="1">
          <mxGeometry x="329.75" y="220" as="geometry">
            <mxPoint x="212" y="-12" as="offset" />
          </mxGeometry>
        </mxCell>
        <mxCell id="ALYUk1nCFPAaFpfhy-I6-15" value="" style="edgeStyle=orthogonalEdgeStyle;rounded=0;orthogonalLoop=1;jettySize=auto;html=1;" edge="1" parent="1" source="ALYUk1nCFPAaFpfhy-I6-12" target="ALYUk1nCFPAaFpfhy-I6-14">
          <mxGeometry relative="1" as="geometry" />
        </mxCell>
        <mxCell id="ALYUk1nCFPAaFpfhy-I6-19" value="" style="edgeStyle=orthogonalEdgeStyle;rounded=0;orthogonalLoop=1;jettySize=auto;html=1;entryX=0.5;entryY=0;entryDx=0;entryDy=0;" edge="1" parent="1" source="ALYUk1nCFPAaFpfhy-I6-12" target="ALYUk1nCFPAaFpfhy-I6-17">
          <mxGeometry relative="1" as="geometry">
            <mxPoint x="795" y="340" as="targetPoint" />
            <Array as="points">
              <mxPoint x="760" y="340" />
            </Array>
          </mxGeometry>
        </mxCell>
        <mxCell id="ALYUk1nCFPAaFpfhy-I6-12" value="&lt;b&gt;OCI runtime&lt;br&gt;&lt;/b&gt;" style="rounded=0;whiteSpace=wrap;html=1;fillColor=#fad7ac;strokeColor=#b46504;" vertex="1" parent="1">
          <mxGeometry x="585" y="310" width="120" height="60" as="geometry" />
        </mxCell>
        <mxCell id="ALYUk1nCFPAaFpfhy-I6-14" value="&lt;b&gt;Contenedor&lt;/b&gt;" style="rounded=0;whiteSpace=wrap;html=1;fillColor=#bac8d3;strokeColor=#23445d;" vertex="1" parent="1">
          <mxGeometry x="585" y="440" width="120" height="60" as="geometry" />
        </mxCell>
        <mxCell id="ALYUk1nCFPAaFpfhy-I6-17" value="&lt;b&gt;Núcleo Linux&lt;br&gt;&lt;/b&gt;" style="rounded=0;whiteSpace=wrap;html=1;" vertex="1" parent="1">
          <mxGeometry x="700" y="545" width="120" height="60" as="geometry" />
        </mxCell>
        <mxCell id="ALYUk1nCFPAaFpfhy-I6-22" value="&lt;font style=&quot;font-size: 14px;&quot;&gt;2. El cliente Docker conecta con el demonio docker por un socket Unix&lt;/font&gt;" style="text;strokeColor=none;align=center;fillColor=none;html=1;verticalAlign=middle;whiteSpace=wrap;rounded=0;fontStyle=1" vertex="1" parent="1">
          <mxGeometry x="130" y="270" width="220" height="30" as="geometry" />
        </mxCell>
        <mxCell id="ALYUk1nCFPAaFpfhy-I6-23" value="&lt;font style=&quot;font-size: 14px;&quot;&gt;3. El demonio Docker conecta con el demonio contianerd por un socket Unix&lt;/font&gt;" style="text;strokeColor=none;align=center;fillColor=none;html=1;verticalAlign=middle;whiteSpace=wrap;rounded=0;fontStyle=1" vertex="1" parent="1">
          <mxGeometry x="350" y="270" width="220" height="30" as="geometry" />
        </mxCell>
        <mxCell id="ALYUk1nCFPAaFpfhy-I6-24" value="&lt;font style=&quot;font-size: 14px;&quot;&gt;4. containerd ejecuta el OCI runtime&lt;/font&gt;" style="text;strokeColor=none;align=center;fillColor=none;html=1;verticalAlign=middle;whiteSpace=wrap;rounded=0;fontStyle=1" vertex="1" parent="1">
          <mxGeometry x="710" y="200" width="220" height="30" as="geometry" />
        </mxCell>
        <mxCell id="ALYUk1nCFPAaFpfhy-I6-25" value="&lt;font style=&quot;font-size: 14px;&quot;&gt;5. El OCI runtime configura el núcleo para que funcione el contenedor&lt;br&gt;&lt;/font&gt;" style="text;strokeColor=none;align=center;fillColor=none;html=1;verticalAlign=middle;whiteSpace=wrap;rounded=0;fontStyle=1" vertex="1" parent="1">
          <mxGeometry x="760" y="330" width="220" height="30" as="geometry" />
        </mxCell>
        <mxCell id="ALYUk1nCFPAaFpfhy-I6-26" value="&lt;font style=&quot;font-size: 14px;&quot;&gt;6. El OCI runtime ejecuta el contenedor&lt;br&gt;&lt;/font&gt;" style="text;strokeColor=none;align=center;fillColor=none;html=1;verticalAlign=middle;whiteSpace=wrap;rounded=0;fontStyle=1" vertex="1" parent="1">
          <mxGeometry x="380" y="430" width="220" height="30" as="geometry" />
        </mxCell>
        <mxCell id="ALYUk1nCFPAaFpfhy-I6-27" value="&lt;font style=&quot;font-size: 13px;&quot;&gt;El núcleo no ve una relación entre el cliente y el contenedor&lt;br&gt;&lt;/font&gt;" style="text;strokeColor=none;align=center;fillColor=none;html=1;verticalAlign=middle;whiteSpace=wrap;rounded=0;" vertex="1" parent="1">
          <mxGeometry x="118.75" y="420" width="190" height="30" as="geometry" />
        </mxCell>
      </root>
    </mxGraphModel>
  </diagram>
</mxfile>
